<svg width="144" height="37" viewBox="0 0 144 37" fill="none" xmlns="http://www.w3.org/2000/svg">
<path d="M0.252319 12.5469C0.40681 12.1525 0.404103 11.7284 0.479951 11.3205C1.38236 6.4256 5.41227 2.30858 10.3256 1.27394C11.2605 1.07679 12.2037 0.974123 13.1603 0.97682C16.5669 0.98491 19.9734 0.949849 23.3799 0.987607C26.716 1.02545 29.6076 2.23298 32.0251 4.51299C34.147 6.51469 35.418 8.97567 35.8788 11.8473C35.9818 12.4821 36.0223 13.1224 36.0223 13.7653C36.0196 17.1745 36.0468 20.5863 36.0088 23.9955C35.9708 27.3155 34.7595 30.1925 32.4695 32.6022C30.4586 34.7146 27.9843 35.9735 25.1008 36.4436C24.8271 36.4895 24.5398 36.4598 24.2769 36.5759C20.1441 36.5759 16.0113 36.5759 11.8785 36.5759C11.8595 36.4922 11.7863 36.5192 11.7348 36.5138C11.2632 36.4544 10.7944 36.3788 10.3283 36.2815C5.41768 35.2469 1.38786 31.1272 0.485362 26.2349C0.409515 25.8271 0.412221 25.4029 0.257731 25.0085C0.25232 20.8538 0.252319 16.7017 0.252319 12.5469ZM11.9246 7.94911C11.9246 8.12208 11.9246 8.23014 11.9246 8.33541C11.9246 12.4497 11.9218 16.5613 11.9327 20.6755C11.9327 20.9537 11.8568 21.0024 11.6021 20.9699C11.1061 20.9051 10.6102 20.9348 10.1224 21.0375C9.11959 21.2481 8.21447 21.6453 7.55863 22.4692C6.70222 23.5497 6.91632 25.0545 8.03013 25.8027C8.50172 26.1188 9.03562 26.2647 9.58847 26.3457C10.8351 26.5321 12.0302 26.4241 13.0736 25.6407C14.1766 24.8113 14.8324 23.7659 14.808 22.3206C14.7674 19.9893 14.7972 17.6553 14.7972 15.3213C14.7972 15.2267 14.7972 15.1322 14.7972 15.0377C14.9002 15.0538 14.9354 15.1079 14.9815 15.1565C16.1847 16.4019 17.3934 17.6472 18.5967 18.8925C18.8948 19.2005 18.8894 19.2032 19.1848 18.9088C20.4341 17.6634 21.6861 16.4207 22.9382 15.1782C23.0059 15.1106 23.0574 14.9971 23.1903 15.0025C23.1903 15.0755 23.1903 15.1349 23.1903 15.1943C23.1903 19.9893 23.193 24.7843 23.1849 29.5794C23.1849 29.8197 23.2309 29.8953 23.4856 29.89C24.2607 29.8711 25.0358 29.8765 25.8108 29.8873C26.0114 29.8899 26.0764 29.8495 26.0764 29.6334C26.071 22.5043 26.071 15.3753 26.0683 8.24902C26.0683 8.1815 26.1171 8.08963 26.0087 8.0383C23.7052 10.3318 21.4016 12.6253 19.1035 14.9242C18.9599 15.0674 18.8894 15.0863 18.7404 14.9323C17.7701 13.9274 16.7918 12.9305 15.8161 11.9337C14.537 10.6208 13.2552 9.31063 11.9246 7.94911Z" fill="#141820"/>
<path d="M45.8021 15.7287C45.9241 15.7341 45.9186 15.6531 45.9431 15.6099C46.9322 13.8594 48.4255 12.9517 50.4472 12.9139C51.3361 12.8977 52.2114 12.9814 53.0515 13.2921C54.1762 13.7081 54.9811 14.4726 55.5041 15.5397C55.534 15.6018 55.561 15.6639 55.5936 15.726C55.6017 15.7396 55.6261 15.7477 55.6559 15.7666C56.0326 15.1372 56.4771 14.5617 57.0516 14.0971C58.0679 13.2786 59.2575 12.9625 60.534 12.922C61.534 12.8895 62.5151 12.9923 63.4364 13.4244C65.0191 14.1647 65.8407 15.4802 66.2303 17.1146C66.4233 17.925 66.5045 18.749 66.5045 19.581C66.5045 22.6363 66.5018 25.6915 66.5126 28.7468C66.5126 29.025 66.4342 29.0872 66.1681 29.0818C65.076 29.0656 63.984 29.0683 62.8891 29.0818C62.6262 29.0845 62.5421 29.0304 62.5421 28.7495C62.553 25.9022 62.5476 23.0549 62.5503 20.2077C62.5503 19.7025 62.5178 19.2001 62.4094 18.7057C62.0273 16.9822 60.8674 16.3338 59.244 16.5013C57.7291 16.658 56.7318 17.6467 56.3984 19.219C56.29 19.735 56.2549 20.2563 56.2522 20.7777C56.2494 23.4385 56.2467 26.0968 56.2576 28.7576C56.2576 29.0197 56.1952 29.0872 55.9323 29.0818C54.8294 29.0656 53.7264 29.0629 52.6234 29.0818C52.3361 29.0872 52.29 28.9927 52.29 28.736C52.2982 25.7213 52.2955 22.7038 52.2955 19.689C52.2955 19.2217 52.2494 18.7651 52.1247 18.3113C51.8266 17.2173 51.141 16.5851 49.9864 16.4905C48.4688 16.369 47.1897 16.8931 46.4797 18.26C46.1463 18.9029 46.0189 19.5999 46.0162 20.3211C46.0135 23.1279 46.0108 25.9374 46.0216 28.7441C46.0216 29.0197 45.9458 29.0845 45.6775 29.0818C44.5555 29.0656 43.4335 29.0683 42.3089 29.0818C42.0813 29.0845 42.0325 29.017 42.0325 28.7981C42.0379 23.7249 42.0379 18.6544 42.0352 13.5811C42.0352 13.3921 42.0568 13.3029 42.2844 13.3056C43.3766 13.3191 44.4688 13.3164 45.5636 13.3056C45.7723 13.3029 45.8021 13.3786 45.7994 13.5568C45.7886 14.1889 45.7967 14.8211 45.7967 15.4559C45.8021 15.5477 45.8021 15.6396 45.8021 15.7287Z" fill="#141820"/>
<path d="M139.72 26.9237C139.382 27.2748 139.11 27.6476 138.772 27.9664C137.742 28.9336 136.479 29.3495 135.1 29.4414C133.731 29.5333 132.403 29.3306 131.192 28.6526C129.699 27.8178 128.847 26.5698 128.812 24.8246C128.774 22.9769 129.523 21.5587 131.124 20.6105C132.208 19.9703 133.409 19.6812 134.639 19.4894C136.224 19.2408 137.821 19.2381 139.42 19.2571C139.666 19.2598 139.723 19.2004 139.728 18.9518C139.763 17.0122 138.498 16.1451 136.875 15.937C135.059 15.702 133.441 16.2018 132.053 17.3985C131.929 17.5066 131.872 17.5012 131.756 17.3824C131.203 16.815 130.637 16.2585 130.076 15.6994C129.812 15.4373 129.812 15.4373 130.094 15.1752C131.225 14.1217 132.571 13.495 134.078 13.1816C135.802 12.8223 137.525 12.7602 139.227 13.2545C141.704 13.9758 142.853 15.4994 143.192 18.055C143.276 18.6844 143.279 19.3165 143.279 19.9486C143.282 22.8851 143.276 25.8188 143.287 28.7552C143.287 29.0253 143.211 29.0794 142.956 29.0767C141.964 29.0605 140.97 29.0632 139.978 29.0767C139.763 29.0794 139.715 29.0146 139.717 28.8119C139.728 28.1825 139.72 27.5531 139.72 26.9237ZM138.249 22.0098C137.514 22.0287 136.78 22.0584 136.054 22.1611C135.127 22.2934 134.224 22.5096 133.447 23.0714C133.002 23.3902 132.788 23.8251 132.769 24.3573C132.737 25.2542 133.314 25.9917 134.289 26.3078C135.035 26.5482 135.796 26.532 136.555 26.4212C137.81 26.2375 138.761 25.6351 139.235 24.4141C139.52 23.6793 139.498 22.9067 139.496 22.1341C139.496 21.9909 139.409 22.0071 139.32 22.0071C138.962 22.0098 138.606 22.0098 138.249 22.0098Z" fill="#141820"/>
<path d="M81.4341 26.5886C81.0418 27.2505 80.5701 27.8367 79.9956 28.3445C79.2362 29.0118 78.3371 29.3386 77.345 29.4224C76.0121 29.5332 74.7052 29.4386 73.5049 28.7714C72.1115 27.9988 71.3503 26.7777 71.0085 25.2622C70.857 24.5841 70.7947 23.898 70.7947 23.2037C70.7947 20.0107 70.7974 16.8176 70.7866 13.6219C70.7866 13.3544 70.857 13.2977 71.1149 13.3031C72.2179 13.3193 73.3209 13.3166 74.4239 13.3031C74.6809 13.3004 74.7675 13.3463 74.7675 13.6299C74.7539 16.299 74.7539 18.968 74.7648 21.6397C74.7675 22.4096 74.8108 23.1795 75.0525 23.9223C75.6378 25.7241 76.803 26.0294 78.2532 25.8701C79.7187 25.708 80.9768 24.6247 81.1987 22.6446C81.2393 22.2906 81.2501 21.9368 81.2474 21.5803C81.2447 18.9193 81.2474 16.2611 81.242 13.6003C81.242 13.3815 81.2772 13.3004 81.5243 13.3031C82.657 13.3193 83.7898 13.3193 84.9225 13.3031C85.1687 13.3004 85.2039 13.3815 85.2039 13.6003C85.1985 18.6627 85.1985 23.7252 85.2039 28.7875C85.2039 29.0253 85.1363 29.0794 84.909 29.0767C83.8358 29.0658 82.7625 29.0658 81.6893 29.0767C81.4801 29.0794 81.4233 29.0225 81.4287 28.8146C81.4422 28.0717 81.4341 27.3315 81.4341 26.5886Z" fill="#141820"/>
<path d="M93.2287 25.9056C93.4046 25.9056 93.5101 25.9056 93.6156 25.9056C96.3582 25.9056 99.0981 25.9084 101.841 25.9002C102.082 25.9002 102.164 25.9462 102.158 26.2028C102.142 27.0727 102.145 27.9426 102.155 28.8123C102.158 29.0204 102.099 29.0744 101.889 29.0744C97.518 29.069 93.1494 29.069 88.7789 29.0744C88.5589 29.0744 88.5237 28.9988 88.5264 28.807C88.5345 27.748 88.5345 26.6918 88.5264 25.6329C88.5264 25.4708 88.5805 25.3626 88.6887 25.2465C91.4124 22.3857 94.1306 19.5196 96.8488 16.6533C96.8867 16.6129 96.9462 16.5831 96.9462 16.5075C96.8515 16.4345 96.7406 16.475 96.6378 16.475C94.1739 16.4723 91.7109 16.467 89.247 16.4804C88.9737 16.4831 88.9277 16.4021 88.9331 16.1536C88.9494 15.2837 88.9467 14.4139 88.9331 13.5441C88.9304 13.3441 88.9927 13.3036 89.182 13.3036C93.2937 13.309 97.4071 13.309 101.519 13.3036C101.703 13.3036 101.77 13.336 101.768 13.5414C101.757 14.6003 101.76 15.6565 101.765 16.7155C101.765 16.8586 101.714 16.9505 101.622 17.0478C98.8411 19.9788 96.0633 22.9125 93.2287 25.9056Z" fill="#141820"/>
<path d="M113.257 21.1592C113.316 18.0714 114.527 15.57 117.297 14.0652C120.181 12.4985 123.148 12.4498 126.064 14.0842C126.568 14.3678 126.997 14.7514 127.406 15.1566C127.52 15.2674 127.541 15.3349 127.417 15.4592C126.59 16.2722 125.769 17.0908 124.95 17.912C124.828 18.0363 124.766 18.0201 124.655 17.9039C124.07 17.315 123.425 16.7937 122.606 16.5856C121.368 16.2723 120.214 16.5505 119.189 17.2664C117.669 18.3281 117.072 19.8517 117.227 21.6454C117.384 23.4688 118.303 24.8277 120.023 25.557C121.536 26.1973 123.52 26.0379 124.75 24.5683C124.856 24.4414 124.907 24.4468 125.016 24.5656C125.807 25.4247 126.603 26.2783 127.409 27.1266C127.533 27.2562 127.468 27.3156 127.368 27.4048C126.36 28.3179 125.162 28.8771 123.853 29.1769C120.712 29.8928 117.891 29.2553 115.552 26.9995C114.084 25.5841 113.368 23.7849 113.259 21.7507C113.248 21.5562 113.257 21.3563 113.257 21.1592Z" fill="#141820"/>
<path d="M109.51 21.2C109.51 23.7204 109.505 26.2408 109.518 28.7612C109.521 29.0368 109.437 29.08 109.188 29.0746C108.066 29.0611 106.944 29.0638 105.822 29.0746C105.6 29.0773 105.54 29.0206 105.54 28.7964C105.546 23.7258 105.546 18.6526 105.54 13.582C105.54 13.3659 105.586 13.2984 105.817 13.3011C106.958 13.3146 108.101 13.3146 109.242 13.3011C109.467 13.2984 109.516 13.3578 109.516 13.5767C109.507 16.1186 109.51 18.6607 109.51 21.2Z" fill="#141820"/>
<path d="M110.058 7.98933C110.055 9.33736 108.963 10.3449 107.502 10.3449C106.093 10.3423 104.99 9.29682 104.987 7.96505C104.987 6.68462 106.109 5.5527 107.57 5.59864C108.995 5.64179 110.058 6.62511 110.058 7.98933Z" fill="#141820"/>
</svg>
