<svg width="110" height="36" viewBox="0 0 110 36" fill="none" xmlns="http://www.w3.org/2000/svg">
<path d="M21.0693 0.0272395C20.8343 0.795247 20.5994 1.56056 20.3644 2.32856C19.1705 6.22308 17.9765 10.1176 16.7744 14.0121C16.7087 14.2272 16.7197 14.2872 16.9684 14.3144C18.2416 14.456 19.5092 14.6222 20.7797 14.7719C20.9245 14.7883 21.0092 14.8427 21.0857 14.9653C22.0392 16.5394 22.9928 18.1163 23.9599 19.6823C24.0747 19.8675 23.9599 19.9519 23.8726 20.0609C22.1321 22.2342 20.3917 24.4075 18.6514 26.5808C16.3181 29.4921 13.9875 32.4062 11.6516 35.3175C11.5696 35.421 11.5123 35.5599 11.3183 35.6062C11.4494 35.1786 11.5696 34.781 11.6952 34.3834C13.0341 30.0749 14.37 25.7692 15.717 21.4634C15.7908 21.2319 15.7662 21.172 15.5176 21.1448C14.2744 21.0059 13.0368 20.8424 11.7963 20.6982C11.5996 20.6763 11.4794 20.6137 11.3729 20.4366C10.4494 18.9006 9.51498 17.3728 8.57514 15.845C8.47134 15.6761 8.47675 15.5726 8.60517 15.4092C12.6734 10.3573 16.7334 5.30251 20.7934 0.245065C20.8617 0.16065 20.9327 0.0817182 21.0037 0C21.0283 0.0135747 21.0475 0.0190587 21.0693 0.0272395Z" fill="#141820"/>
<path d="M13.9526 33.8034C14.9334 32.5779 15.8924 31.3822 16.8487 30.1812C16.9634 30.0369 17.1164 30.0641 17.2585 30.0533C19.2038 29.8898 21.0234 29.3261 22.6682 28.283C26.1134 26.1015 28.1161 22.994 28.5068 18.9335C29.045 13.3504 25.6762 8.14865 20.3595 6.26941C20.1381 6.19047 20.0699 6.12242 20.1491 5.87996C20.4879 4.83147 20.8103 3.7748 21.119 2.71812C21.1901 2.47845 21.2803 2.44573 21.507 2.52745C25.5287 3.95999 28.5942 6.52544 30.5969 10.2784C33.8618 16.4034 32.8646 23.7866 28.0942 28.8576C25.4167 31.7063 22.1053 33.3731 18.2065 33.8634C16.8295 34.0349 15.4526 34.0103 14.0782 33.8415C14.051 33.8415 14.0263 33.8279 13.9526 33.8034Z" fill="#141820"/>
<path d="M18.4499 1.81868C18.0182 2.35798 17.6166 2.86177 17.215 3.36287C16.6712 4.04107 16.1248 4.71369 15.5866 5.39459C15.4801 5.53079 15.3626 5.59614 15.1904 5.6125C9.74526 6.12448 5.3601 9.90464 4.21806 15.2371C3.33558 19.3576 4.39294 23.0261 7.23166 26.1581C8.58131 27.6478 10.237 28.7045 12.1358 29.3772C12.2943 29.4344 12.349 29.4807 12.2889 29.6632C11.9364 30.7607 11.5949 31.8609 11.2643 32.964C11.2015 33.1737 11.1113 33.1573 10.9474 33.0974C6.91745 31.6513 3.87382 29.0585 1.86292 25.292C0.338401 22.4379 -0.268197 19.374 0.108875 16.1712C0.770035 10.5256 3.6552 6.30697 8.64146 3.55624C11.5184 1.96854 14.6412 1.43202 17.9117 1.74244C18.0701 1.7615 18.2286 1.78874 18.4499 1.81868Z" fill="#141820"/>
<path d="M104.482 26.0686C103.212 26.0686 101.964 26.0659 100.712 26.0713C100.51 26.0713 100.523 25.927 100.488 25.818C100.089 24.568 99.6872 23.3206 99.3075 22.0651C99.2417 21.8473 99.1461 21.7955 98.9332 21.7955C97.0619 21.8037 95.1905 21.8037 93.3155 21.7955C93.1108 21.7955 93.0233 21.8473 92.9611 22.046C92.5724 23.3098 92.1656 24.568 91.7778 25.8289C91.7228 26.0114 91.6461 26.0713 91.4495 26.0713C90.2807 26.0604 89.1083 26.0659 87.8953 26.0659C88.0621 25.5811 88.2172 25.1236 88.376 24.666C90.2203 19.3743 92.0646 14.0855 93.9008 8.79386C93.9829 8.55958 94.0812 8.48065 94.3346 8.48334C95.5972 8.4997 96.8571 8.49422 98.1189 8.48604C98.3046 8.48604 98.3921 8.52964 98.458 8.71753C100.444 14.4205 102.436 20.1233 104.427 25.8235C104.449 25.8997 104.46 25.9787 104.482 26.0686ZM96.1275 11.8413C96.0942 11.904 96.0671 11.9448 96.0536 11.9911C95.3402 14.2652 94.6331 16.542 93.9116 18.8134C93.8377 19.0421 93.9333 19.0312 94.0974 19.0312C95.4466 19.0285 96.7994 19.0258 98.1486 19.034C98.3705 19.034 98.4138 19.0013 98.3407 18.7725C97.6733 16.6809 97.0204 14.5866 96.362 12.4922C96.2935 12.2799 96.2583 12.0538 96.1275 11.8413Z" fill="#141820"/>
<path d="M63.0226 15.957C63.0226 15.4912 63.0199 15.0283 63.0226 14.5626C63.0253 14.1867 63.0361 13.8081 63.0443 13.4324C63.4294 13.3642 63.8181 13.4187 64.2032 13.4023C64.2519 13.3996 64.3042 13.4078 64.3529 13.3996C64.5224 13.3751 64.5747 13.4405 64.5693 13.6094C64.5558 13.947 64.5666 14.2875 64.5666 14.6252C64.5666 18.3427 64.5666 22.0602 64.5666 25.7777C64.5666 28.3432 63.047 30.1624 60.501 30.6173C58.957 30.8923 57.4491 30.8025 56.034 30.0698C54.9545 29.5088 54.1654 28.689 53.8371 27.4826C53.7821 27.2837 53.7911 27.202 54.0337 27.2129C54.4549 27.232 54.8751 27.2184 55.2963 27.2184C55.3838 27.2184 55.4659 27.202 55.5146 27.3165C56.0205 28.5256 57.0252 29.0703 58.2472 29.2827C59.159 29.4407 60.0636 29.3726 60.924 29.0104C62.2028 28.4711 62.8639 27.4798 62.927 26.1154C62.9676 25.2303 62.9351 24.3424 62.9351 23.3757C62.67 23.9067 62.3994 24.3506 62.036 24.7292C59.8372 27.0006 56.0007 26.5893 54.2853 23.8958C53.4078 22.5177 53.1544 20.9817 53.195 19.3804C53.2274 18.1629 53.4709 16.9946 54.0391 15.9052C55.676 12.7678 59.5396 12.5499 61.5526 14.1758C61.8556 14.421 62.1316 14.6933 62.3724 15.0038C62.6023 15.3007 62.7935 15.6247 63.0226 15.957ZM62.9378 19.797C62.9351 18.7675 62.799 17.8362 62.3832 16.9674C61.687 15.5049 60.5497 14.647 58.8885 14.6334C57.2416 14.6198 56.08 15.4368 55.4379 16.9047C54.6298 18.7512 54.6298 20.6468 55.4406 22.496C56.0557 23.8958 57.1731 24.6964 58.7306 24.7455C60.2629 24.7918 61.4245 24.1055 62.192 22.79C62.7412 21.845 62.9243 20.8019 62.9378 19.797Z" fill="#141820"/>
<path d="M109.978 17.2882C109.978 20.1179 109.975 22.9475 109.983 25.7799C109.983 26.0087 109.933 26.0794 109.693 26.0768C108.652 26.0632 107.611 26.0659 106.57 26.0741C106.363 26.0768 106.278 26.0468 106.278 25.8044C106.286 20.1152 106.286 14.4231 106.281 8.73389C106.281 8.53512 106.338 8.48882 106.532 8.48882C107.592 8.497 108.655 8.5024 109.715 8.48604C109.95 8.48334 109.986 8.55418 109.986 8.76661C109.978 11.6098 109.978 14.4477 109.978 17.2882Z" fill="#141820"/>
<path d="M69.0931 15.6021C69.4511 15.0084 69.8471 14.4854 70.3909 14.0769C72.246 12.6907 75.3034 12.9332 76.7545 14.5944C77.5463 15.5013 77.8556 16.588 77.8611 17.7645C77.8719 20.4362 77.8611 23.1051 77.8692 25.7769C77.8692 26.0056 77.8196 26.0901 77.5743 26.0765C77.2054 26.0546 76.8338 26.0601 76.4623 26.0737C76.262 26.0819 76.2106 26.0192 76.2133 25.8232C76.2215 24.6276 76.2187 23.432 76.2187 22.2364C76.2187 20.8011 76.2512 19.3659 76.2106 17.9306C76.1421 15.4877 74.4403 14.3711 72.2081 14.6925C70.3909 14.9539 69.2076 16.2884 69.1237 18.1185C69.0363 20.0304 69.1039 21.945 69.0904 23.8569C69.085 24.5051 69.0823 25.1532 69.0931 25.8014C69.0958 25.9975 69.0606 26.0874 68.8361 26.0765C68.4374 26.0574 68.0361 26.0656 67.6348 26.0737C67.495 26.0765 67.4237 26.0383 67.4427 25.8913C67.449 25.8422 67.4427 25.7905 67.4427 25.7414C67.4427 20.1013 67.4454 14.461 67.4373 8.82073C67.4373 8.57288 67.4706 8.46401 67.7547 8.48847C68.1019 8.51849 68.4564 8.51301 68.8036 8.48847C69.0552 8.46941 69.0904 8.56749 69.0904 8.7881C69.0823 10.9504 69.085 13.1129 69.085 15.2753C69.0931 15.3843 69.0931 15.4932 69.0931 15.6021Z" fill="#141820"/>
<path d="M36.6193 17.2557C36.6193 14.4343 36.6221 11.6155 36.6139 8.794C36.6139 8.54624 36.6686 8.4727 36.9199 8.48897C37.2997 8.51351 37.6794 8.50533 38.062 8.49176C38.2423 8.48627 38.3051 8.52709 38.2996 8.72046C38.286 9.22704 38.2942 9.73632 38.2942 10.2456C38.2942 14.9 38.2969 19.5544 38.286 24.2087C38.286 24.4837 38.3598 24.5437 38.6275 24.5437C41.3296 24.5328 44.0344 24.5382 46.7365 24.5382C47.1245 24.5382 47.1245 24.5382 47.1245 24.9413C47.1245 25.2 47.0972 25.4614 47.13 25.7175C47.1709 26.0389 47.0371 26.0879 46.7502 26.0824C45.6902 26.0661 44.6273 26.077 43.5673 26.077C41.3761 26.077 39.1821 26.0688 36.9909 26.0852C36.6631 26.0879 36.6111 25.9871 36.6139 25.6929C36.6221 22.8769 36.6193 20.0663 36.6193 17.2557Z" fill="#141820"/>
<path d="M81.2593 19.2334C81.2593 17.8281 81.2539 16.4228 81.2647 15.0175C81.2674 14.7942 81.2124 14.7315 80.9861 14.7424C80.527 14.7614 80.0652 14.7424 79.6035 14.7506C79.4285 14.7533 79.3492 14.7206 79.36 14.5245C79.3762 14.2168 79.3735 13.9063 79.36 13.5986C79.3546 13.4406 79.4069 13.3943 79.562 13.397C80.0517 13.4052 80.5432 13.3889 81.0348 13.4052C81.2287 13.4106 81.262 13.348 81.262 13.171C81.2539 12.275 81.2647 11.3763 81.2512 10.4803C81.2485 10.265 81.3107 10.216 81.5155 10.2242C81.896 10.2406 82.2784 10.2406 82.6581 10.2242C82.852 10.216 82.8872 10.2787 82.8845 10.4584C82.8764 11.3544 82.8872 12.2532 82.8737 13.1492C82.871 13.3643 82.9341 13.4106 83.1388 13.4052C83.808 13.3916 84.4799 13.4079 85.15 13.3943C85.3493 13.3916 85.4088 13.4488 85.3953 13.6422C85.3791 13.909 85.3764 14.1814 85.3953 14.4483C85.4115 14.6743 85.352 14.7587 85.1058 14.7506C84.4366 14.7315 83.7647 14.7506 83.0946 14.7397C82.9314 14.737 82.8737 14.7751 82.8764 14.9494C82.8818 17.5993 82.8791 20.2519 82.8818 22.9019C82.8818 23.1496 82.9088 23.4002 82.972 23.6399C83.1469 24.3017 83.5627 24.6557 84.2481 24.6966C84.5872 24.7157 84.9281 24.702 85.2672 24.6884C85.4088 24.683 85.4611 24.7157 85.4557 24.8655C85.4449 25.2031 85.4503 25.5436 85.453 25.8813C85.453 25.9875 85.453 26.0665 85.3051 26.0801C84.617 26.1454 83.9253 26.1835 83.2425 26.0501C82.0927 25.824 81.4749 25.1242 81.3189 23.9149C81.2756 23.58 81.2539 23.2422 81.2539 22.9019C81.262 21.6845 81.2593 20.459 81.2593 19.2334Z" fill="#141820"/>
<path d="M49.3034 19.7121C49.3034 17.6996 49.3061 15.6869 49.298 13.6716C49.298 13.451 49.3476 13.3802 49.5766 13.3911C49.9455 13.4129 50.3171 13.4074 50.6887 13.3911C50.8961 13.3829 50.9592 13.4374 50.9565 13.6498C50.9457 14.7556 50.9511 15.8612 50.9511 16.9697C50.9511 19.9001 50.9484 22.8306 50.9565 25.7609C50.9565 26.0061 50.9015 26.0905 50.6481 26.0769C50.29 26.0551 49.9266 26.0579 49.5658 26.0769C49.3557 26.0878 49.298 26.0224 49.298 25.8127C49.3061 23.7783 49.3034 21.7439 49.3034 19.7121Z" fill="#141820"/>
<path d="M51.219 9.76577C51.2217 10.3677 50.7518 10.8443 50.1484 10.858C49.555 10.8688 49.0554 10.3867 49.05 9.79301C49.0419 9.19662 49.5225 8.7091 50.1232 8.7064C50.7301 8.69822 51.2162 9.16938 51.219 9.76577Z" fill="#141820"/>
</svg>
