<svg width="111" height="37" viewBox="0 0 111 37" fill="none" xmlns="http://www.w3.org/2000/svg">
<path d="M21.5552 0.996966C21.3203 1.76497 21.0854 2.53028 20.8503 3.29829C19.6564 7.1928 18.4625 11.0873 17.2604 14.9818C17.1947 15.197 17.2057 15.2569 17.4543 15.2842C18.7275 15.4258 19.9952 15.5919 21.2657 15.7417C21.4105 15.758 21.4952 15.8124 21.5716 15.935C22.5252 17.5092 23.4787 19.086 24.4459 20.652C24.5606 20.8372 24.4459 20.9216 24.3585 21.0306C22.6181 23.2039 20.8777 25.3772 19.1373 27.5505C16.804 30.4618 14.4735 33.3759 12.1376 36.2873C12.0556 36.3907 11.9982 36.5296 11.8042 36.5759C11.9354 36.1484 12.0556 35.7507 12.1812 35.3531C13.52 31.0446 14.856 26.7389 16.203 22.4331C16.2768 22.2016 16.2522 22.1417 16.0035 22.1145C14.7604 21.9756 13.5227 21.8122 12.2823 21.6679C12.0856 21.646 11.9654 21.5834 11.8589 21.4064C10.9354 19.8704 10.0009 18.3425 9.0611 16.8147C8.9573 16.6459 8.96271 16.5423 9.09114 16.3789C13.1594 11.327 17.2193 6.27224 21.2794 1.21479C21.3476 1.13038 21.4187 1.05144 21.4897 0.969727C21.5143 0.983301 21.5334 0.988785 21.5552 0.996966Z" fill="#141820"/>
<path d="M14.4385 34.7731C15.4193 33.5476 16.3783 32.352 17.3346 31.1509C17.4493 31.0066 17.6023 31.0339 17.7444 31.023C19.6897 30.8596 21.5093 30.2958 23.1541 29.2527C26.5993 27.0712 28.602 23.9638 28.9927 19.9032C29.5309 14.3201 26.1621 9.11838 20.8454 7.23913C20.624 7.1602 20.5558 7.09215 20.635 6.84969C20.9738 5.8012 21.2962 4.74452 21.6049 3.68785C21.676 3.44818 21.7662 3.41546 21.9929 3.49718C26.0146 4.92972 29.0801 7.49516 31.0828 11.2481C34.3477 17.3731 33.3505 24.7563 28.5802 29.8273C25.9026 32.6761 22.5912 34.3429 18.6924 34.8331C17.3154 35.0046 15.9385 34.9801 14.5641 34.8112C14.5369 34.8112 14.5122 34.7977 14.4385 34.7731Z" fill="#141820"/>
<path d="M18.9359 2.7884C18.5042 3.32771 18.1026 3.8315 17.7009 4.3326C17.1572 5.01079 16.6108 5.68342 16.0725 6.36432C15.966 6.50051 15.8485 6.56587 15.6763 6.58223C10.2312 7.0942 5.84606 10.8744 4.70402 16.2068C3.82154 20.3273 4.8789 23.9958 7.71762 27.1278C9.06727 28.6176 10.723 29.6742 12.6218 30.3469C12.7803 30.4041 12.8349 30.4504 12.7749 30.6329C12.4224 31.7304 12.0809 32.8307 11.7502 33.9337C11.6875 34.1434 11.5973 34.127 11.4333 34.0671C7.40341 32.621 4.35978 30.0283 2.34888 26.2618C0.824363 23.4076 0.217765 20.3437 0.594837 17.141C1.256 11.4953 4.14117 7.2767 9.12742 4.52597C12.0044 2.93826 15.1272 2.40175 18.3976 2.71217C18.5561 2.73123 18.7146 2.75847 18.9359 2.7884Z" fill="#141820"/>
<path d="M104.968 27.0383C103.698 27.0383 102.449 27.0356 101.198 27.041C100.996 27.041 101.009 26.8967 100.974 26.7878C100.575 25.5377 100.173 24.2904 99.7935 23.0348C99.7277 22.817 99.6321 22.7652 99.4192 22.7652C97.5478 22.7734 95.6764 22.7734 93.8015 22.7652C93.5967 22.7652 93.5093 22.817 93.447 23.0158C93.0583 24.2795 92.6516 25.5377 92.2638 26.7986C92.2088 26.9811 92.1321 27.041 91.9355 27.041C90.7667 27.0301 89.5942 27.0356 88.3812 27.0356C88.5481 26.5508 88.7032 26.0933 88.8619 25.6357C90.7063 20.3441 92.5506 15.0552 94.3868 9.76358C94.4688 9.52931 94.5672 9.45037 94.8206 9.45307C96.0832 9.46943 97.3431 9.46395 98.6048 9.45577C98.7906 9.45577 98.8781 9.49937 98.9439 9.68726C100.93 15.3902 102.922 21.093 104.913 26.7932C104.935 26.8695 104.946 26.9484 104.968 27.0383ZM96.6135 12.8111C96.5801 12.8737 96.5531 12.9145 96.5395 12.9608C95.8262 15.2349 95.1191 17.5117 94.3976 19.7831C94.3237 20.0118 94.4192 20.0009 94.5834 20.0009C95.9326 19.9982 97.2854 19.9955 98.6346 20.0037C98.8564 20.0037 98.8997 19.971 98.8267 19.7422C98.1593 17.6506 97.5063 15.5563 96.848 13.4619C96.7794 13.2496 96.7443 13.0235 96.6135 12.8111Z" fill="#141820"/>
<path d="M63.5086 16.9267C63.5086 16.461 63.5059 15.998 63.5086 15.5323C63.5113 15.1564 63.5222 14.7779 63.5303 14.4021C63.9154 14.334 64.3041 14.3884 64.6892 14.3721C64.7379 14.3694 64.7902 14.3776 64.8389 14.3694C65.0085 14.3448 65.0608 14.4103 65.0554 14.5791C65.0418 14.9168 65.0526 15.2572 65.0526 15.595C65.0526 19.3124 65.0526 23.0299 65.0526 26.7474C65.0526 29.3129 63.533 31.1321 60.987 31.587C59.443 31.862 57.9351 31.7722 56.5201 31.0395C55.4405 30.4786 54.6514 29.6588 54.3231 28.4523C54.2681 28.2535 54.2771 28.1717 54.5197 28.1826C54.9409 28.2018 55.3612 28.1881 55.7823 28.1881C55.8698 28.1881 55.9519 28.1717 56.0006 28.2862C56.5065 29.4953 57.5112 30.04 58.7332 30.2525C59.645 30.4104 60.5496 30.3424 61.41 29.9802C62.6888 29.4409 63.3499 28.4495 63.413 27.0851C63.4536 26.2 63.4212 25.3122 63.4212 24.3454C63.156 24.8764 62.8855 25.3203 62.522 25.6989C60.3232 27.9703 56.4867 27.559 54.7713 24.8655C53.8938 23.4875 53.6404 21.9515 53.681 20.3501C53.7134 19.1327 53.9569 17.9643 54.5251 16.8749C56.162 13.7376 60.0256 13.5196 62.0386 15.1456C62.3416 15.3907 62.6176 15.663 62.8584 15.9735C63.0884 16.2704 63.2796 16.5945 63.5086 16.9267ZM63.4239 20.7668C63.4212 19.7372 63.285 18.8059 62.8692 17.9371C62.173 16.4746 61.0357 15.6167 59.3745 15.6031C57.7277 15.5895 56.5661 16.4065 55.9239 17.8744C55.1159 19.721 55.1159 21.6165 55.9266 23.4657C56.5417 24.8655 57.6591 25.6662 59.2167 25.7153C60.7489 25.7616 61.9105 25.0753 62.678 23.7598C63.2273 22.8148 63.4103 21.7717 63.4239 20.7668Z" fill="#141820"/>
<path d="M110.464 18.258C110.464 21.0876 110.461 23.9173 110.469 26.7496C110.469 26.9784 110.419 27.0492 110.179 27.0465C109.138 27.0329 108.097 27.0356 107.056 27.0438C106.849 27.0465 106.764 27.0165 106.764 26.7742C106.772 21.0849 106.772 15.3929 106.767 9.70361C106.767 9.50485 106.824 9.45855 107.018 9.45855C108.078 9.46673 109.14 9.47212 110.201 9.45576C110.436 9.45307 110.472 9.52391 110.472 9.73634C110.464 12.5796 110.464 15.4174 110.464 18.258Z" fill="#141820"/>
<path d="M69.579 16.5718C69.9371 15.9781 70.333 15.4552 70.8768 15.0467C72.732 13.6604 75.7893 13.9029 77.2404 15.5641C78.0323 16.471 78.3416 17.5577 78.347 18.7342C78.3578 21.406 78.347 24.0749 78.3551 26.7466C78.3551 26.9754 78.3055 27.0598 78.0602 27.0462C77.6914 27.0244 77.3198 27.0299 76.9482 27.0434C76.748 27.0516 76.6966 26.989 76.6993 26.7929C76.7074 25.5973 76.7047 24.4017 76.7047 23.2061C76.7047 21.7708 76.7372 20.3356 76.6966 18.9004C76.6281 16.4575 74.9262 15.3408 72.6941 15.6622C70.8768 15.9236 69.6936 17.2581 69.6097 19.0883C69.5222 21.0001 69.5899 22.9147 69.5763 24.8266C69.5709 25.4748 69.5682 26.123 69.579 26.7711C69.5818 26.9672 69.5466 27.0571 69.322 27.0462C68.9234 27.0272 68.5221 27.0353 68.1207 27.0434C67.9809 27.0462 67.9097 27.008 67.9286 26.861C67.9349 26.8119 67.9286 26.7602 67.9286 26.7112C67.9286 21.071 67.9313 15.4307 67.9232 9.79046C67.9232 9.54261 67.9566 9.43374 68.2407 9.45819C68.5879 9.48822 68.9423 9.48274 69.2895 9.45819C69.5412 9.43913 69.5763 9.53722 69.5763 9.75783C69.5682 11.9202 69.5709 14.0826 69.5709 16.245C69.579 16.354 69.579 16.4629 69.579 16.5718Z" fill="#141820"/>
<path d="M37.1052 18.2255C37.1052 15.404 37.108 12.5852 37.0998 9.76372C37.0998 9.51596 37.1545 9.44242 37.4058 9.45869C37.7856 9.48324 38.1653 9.47506 38.5479 9.46148C38.7282 9.456 38.791 9.49681 38.7855 9.69018C38.7719 10.1968 38.7801 10.706 38.7801 11.2153C38.7801 15.8698 38.7828 20.5241 38.7719 25.1784C38.7719 25.4534 38.8457 25.5134 39.1134 25.5134C41.8155 25.5025 44.5203 25.5079 47.2224 25.5079C47.6104 25.5079 47.6104 25.5079 47.6104 25.911C47.6104 26.1697 47.5831 26.4312 47.6159 26.6872C47.6568 27.0086 47.523 27.0576 47.2361 27.0521C46.1761 27.0358 45.1132 27.0467 44.0532 27.0467C41.862 27.0467 39.668 27.0385 37.4768 27.0549C37.149 27.0576 37.097 26.9568 37.0998 26.6627C37.108 23.8467 37.1052 21.0361 37.1052 18.2255Z" fill="#141820"/>
<path d="M81.7453 20.2031C81.7453 18.7978 81.7399 17.3925 81.7507 15.9872C81.7534 15.7639 81.6984 15.7012 81.472 15.7121C81.013 15.7312 80.5512 15.7121 80.0895 15.7203C79.9145 15.7231 79.8351 15.6903 79.8459 15.4943C79.8622 15.1866 79.8595 14.876 79.8459 14.5683C79.8405 14.4104 79.8928 14.3641 80.048 14.3668C80.5377 14.3749 81.0292 14.3586 81.5207 14.3749C81.7146 14.3803 81.748 14.3178 81.748 14.1408C81.7399 13.2447 81.7507 12.346 81.7372 11.45C81.7345 11.2348 81.7967 11.1858 82.0014 11.194C82.382 11.2103 82.7644 11.2103 83.1441 11.194C83.338 11.1858 83.3732 11.2484 83.3705 11.4281C83.3623 12.3242 83.3732 13.2229 83.3596 14.1189C83.3569 14.334 83.4201 14.3803 83.6248 14.3749C84.294 14.3613 84.9659 14.3776 85.6359 14.3641C85.8353 14.3613 85.8948 14.4185 85.8813 14.6119C85.865 14.8787 85.8623 15.1511 85.8813 15.418C85.8975 15.644 85.838 15.7285 85.5918 15.7203C84.9226 15.7012 84.2507 15.7203 83.5806 15.7094C83.4174 15.7067 83.3596 15.7448 83.3623 15.9191C83.3677 18.569 83.365 21.2217 83.3677 23.8716C83.3677 24.1194 83.3948 24.3699 83.4579 24.6096C83.6329 25.2714 84.0487 25.6254 84.7341 25.6663C85.0732 25.6854 85.4141 25.6717 85.7532 25.6582C85.8948 25.6527 85.9471 25.6854 85.9417 25.8352C85.9309 26.1728 85.9363 26.5133 85.939 26.851C85.939 26.9572 85.939 27.0362 85.7911 27.0498C85.103 27.1152 84.4112 27.1533 83.7285 27.0199C82.5786 26.7938 81.9608 26.0939 81.8048 24.8847C81.7615 24.5497 81.7399 24.212 81.7399 23.8716C81.748 22.6542 81.7453 21.4287 81.7453 20.2031Z" fill="#141820"/>
<path d="M49.7893 20.6819C49.7893 18.6693 49.7921 16.6566 49.7839 14.6413C49.7839 14.4208 49.8335 14.3499 50.0626 14.3608C50.4315 14.3827 50.803 14.3772 51.1746 14.3608C51.382 14.3526 51.4452 14.4071 51.4425 14.6195C51.4316 15.7253 51.4371 16.831 51.4371 17.9394C51.4371 20.8699 51.4344 23.8003 51.4425 26.7306C51.4425 26.9758 51.3875 27.0602 51.134 27.0466C50.776 27.0248 50.4125 27.0276 50.0518 27.0466C49.8417 27.0575 49.7839 26.9922 49.7839 26.7824C49.7921 24.748 49.7893 22.7136 49.7893 20.6819Z" fill="#141820"/>
<path d="M51.705 10.7355C51.7077 11.3375 51.2378 11.814 50.6345 11.8277C50.041 11.8386 49.5414 11.3564 49.536 10.7627C49.5279 10.1663 50.0086 9.67883 50.6092 9.67613C51.2162 9.66795 51.7023 10.1391 51.705 10.7355Z" fill="#141820"/>
</svg>
