<svg width="140" height="37" viewBox="0 0 140 37" fill="none" xmlns="http://www.w3.org/2000/svg">
<path d="M0.0560608 18.2851C0.330319 17.385 0.828872 16.5898 1.24987 15.7588C1.69034 14.8918 1.66815 13.9668 1.60168 13.0336C1.574 12.6498 1.5684 12.266 1.59609 11.8849C1.65156 11.0732 2.01438 10.4243 2.63487 9.90525C3.02267 9.57945 3.43257 9.28405 3.85085 8.99961C4.63747 8.46399 5.19699 7.7599 5.54601 6.87916C5.70113 6.48702 5.88953 6.10603 6.05845 5.71668C6.51272 4.67304 7.33541 4.10973 8.44056 3.91645C8.82006 3.8502 9.19678 3.77018 9.57628 3.7122C10.5402 3.56305 11.3573 3.13235 12.0636 2.46971C12.3434 2.20738 12.648 1.96996 12.9389 1.71869C13.7727 1.00085 14.7255 0.815834 15.7809 1.0947C16.0855 1.17471 16.393 1.24106 16.6894 1.34039C17.7863 1.70763 18.8748 1.70215 19.9718 1.34318C20.462 1.18307 20.9634 1.05883 21.4785 0.992484C22.2015 0.901417 22.8413 1.08643 23.4286 1.49781C23.7776 1.7435 24.1155 2.00583 24.4146 2.30681C25.2872 3.18207 26.3426 3.65143 27.5613 3.80057C27.9214 3.84471 28.2759 3.94414 28.6305 4.02415C29.5113 4.2257 30.129 4.75314 30.5196 5.55108C30.7273 5.97621 30.9323 6.40422 31.104 6.84599C31.4641 7.75711 32.0402 8.48332 32.8574 9.03278C33.2784 9.31434 33.6828 9.61532 34.0706 9.94669C34.7188 10.4989 35.0428 11.1919 35.0789 12.0341C35.1038 12.5697 35.065 13.1053 35.0317 13.6382C34.9708 14.566 35.1868 15.4163 35.6439 16.2171C35.8489 16.576 36.0372 16.946 36.2283 17.3104C36.7408 18.2851 36.7381 19.2625 36.2283 20.2372C36.0899 20.505 35.968 20.7866 35.8045 21.0379C35.1121 22.1064 34.9182 23.2716 35.0594 24.5141C35.1038 24.9062 35.0927 25.301 35.065 25.693C35.0012 26.6208 34.5083 27.2945 33.7908 27.8329C33.4584 28.0814 33.1288 28.3327 32.7853 28.5673C32.0153 29.0892 31.4724 29.785 31.129 30.6437C30.9711 31.0357 30.791 31.4195 30.622 31.8088C30.1623 32.8636 29.3396 33.4378 28.2205 33.6283C27.8521 33.6919 27.4837 33.7692 27.1154 33.8272C26.1431 33.979 25.3149 34.4069 24.6003 35.0807C24.3205 35.343 24.0158 35.5804 23.725 35.8317C22.8884 36.5468 21.9356 36.7318 20.883 36.4502C20.5812 36.3701 20.2709 36.3038 19.9745 36.2045C18.8776 35.84 17.7891 35.8455 16.6921 36.2045C16.213 36.3618 15.7199 36.4833 15.2158 36.5496C14.4734 36.6462 13.8115 36.4584 13.2104 36.025C12.8724 35.782 12.5428 35.528 12.2492 35.2326C11.3767 34.3573 10.3213 33.8907 9.10262 33.7416C8.7425 33.6974 8.38798 33.5979 8.03336 33.5179C7.1664 33.3191 6.54871 32.7973 6.1609 32.0131C5.94211 31.5714 5.73441 31.1213 5.5516 30.663C5.19978 29.7822 4.64306 29.0781 3.85636 28.5425C3.42147 28.2471 2.99489 27.9378 2.59329 27.5954C1.95341 27.0515 1.63217 26.3667 1.59059 25.5356C1.5629 24.9476 1.62107 24.365 1.64326 23.7824C1.66815 23.0231 1.53522 22.2997 1.1723 21.6232C0.762404 20.8529 0.319226 20.0992 0.0588561 19.257C0.0560603 18.9312 0.0560608 18.6081 0.0560608 18.2851ZM5.73161 18.749C5.73161 25.6986 11.3795 31.3257 18.3652 31.3118C25.2262 31.2981 30.7717 25.8118 30.9323 19.0803C31.0985 12.0368 25.4561 6.37663 18.62 6.23027C11.4791 6.07564 5.73161 11.8242 5.73161 18.749Z" fill="#141820"/>
<path d="M66.9468 12.376C69.0716 8.78105 75.2314 8.65681 77.2092 12.5361C77.3282 12.5196 77.3508 12.4064 77.4004 12.3291C78.6107 10.551 80.3251 9.72535 82.4526 9.67015C83.7766 9.63707 85.0401 9.85516 86.1837 10.551C87.8954 11.5946 88.8072 13.1629 89.1229 15.1039C89.2221 15.7141 89.2473 16.3271 89.2446 16.9456C89.2419 20.3306 89.2392 23.7157 89.25 27.1008C89.25 27.3548 89.2058 27.4432 88.9263 27.4349C88.1146 27.4128 87.3029 27.4156 86.4885 27.4321C86.2477 27.4376 86.1891 27.3713 86.1918 27.1339C86.2008 23.6577 86.1981 20.1816 86.1981 16.7054C86.1981 16.0758 86.1115 15.4574 85.8933 14.8637C85.317 13.2954 83.8298 12.4312 82.0594 12.5528C80.0654 12.688 78.5665 13.9608 78.2202 16.2912C78.1372 16.8517 78.1038 17.4149 78.1038 17.9809C78.1065 21.0237 78.1011 24.0636 78.112 27.1063C78.112 27.3769 78.0461 27.4404 77.7801 27.4349C76.9873 27.4156 76.1955 27.4156 75.4036 27.4349C75.1322 27.4404 75.0519 27.3769 75.0519 27.0925C75.0627 23.6053 75.06 20.1208 75.0573 16.6335C75.0573 15.7417 74.9022 14.883 74.417 14.1183C73.6468 12.9062 72.4843 12.4699 71.1071 12.5637C68.9246 12.7157 67.4149 14.1293 67.0686 16.2856C66.9856 16.8048 66.9441 17.3266 66.9441 17.8539C66.9468 20.9353 66.9414 24.0167 66.9522 27.1008C66.9522 27.3907 66.8638 27.4432 66.6005 27.4376C65.8087 27.4211 65.0159 27.4211 64.2241 27.4376C63.9607 27.4432 63.8886 27.3852 63.8913 27.1118C63.9003 21.9376 63.9003 16.7634 63.9003 11.5918C63.9003 11.1777 63.9111 10.7635 63.894 10.3493C63.8859 10.1395 63.9634 10.1036 64.1519 10.1064C65.0051 10.1147 65.8583 10.1147 66.7114 10.1064C66.8945 10.1036 66.9549 10.1451 66.9522 10.3384C66.9387 10.99 66.9468 11.6471 66.9468 12.376Z" fill="#141820"/>
<path d="M57.6751 12.9594C57.6751 12.0924 57.6807 11.2282 57.6724 10.3612C57.6696 10.1734 57.7084 10.0989 57.9189 10.1017C58.7721 10.1154 59.6252 10.1127 60.4783 10.1017C60.6833 10.0989 60.7276 10.1651 60.7276 10.3584C60.7221 15.9661 60.7221 21.5738 60.7276 27.1844C60.7276 27.3887 60.6639 27.4356 60.47 27.4328C59.628 27.4218 58.7859 27.4218 57.9411 27.4328C57.7306 27.4356 57.6668 27.3832 57.6696 27.1678C57.6835 26.3036 57.6751 25.4394 57.6751 24.4978C57.3455 24.9286 57.0657 25.3041 56.7389 25.6437C55.426 27.0049 53.8001 27.6897 51.9359 27.836C49.3821 28.0348 47.1245 27.339 45.2383 25.5747C42.8811 23.3686 41.9891 20.6295 42.3963 17.4792C42.834 14.0914 44.6815 11.645 47.8115 10.317C50.3764 9.22909 52.9829 9.37545 55.4316 10.8195C56.3345 11.3579 57.0298 12.1228 57.6751 12.9594ZM45.3518 18.7604C45.3518 22.2807 47.9916 24.9341 51.4788 24.959C55.0133 24.9838 57.6198 22.2089 57.689 18.915C57.7611 15.3697 55.0189 12.5589 51.4982 12.5783C48.0026 12.6004 45.3518 15.2483 45.3518 18.7604Z" fill="#141820"/>
<path d="M136.144 24.4837C135.665 25.1712 135.178 25.7345 134.599 26.2121C133.369 27.2282 131.936 27.7307 130.361 27.8439C127.818 28.0289 125.574 27.3276 123.696 25.5688C121.519 23.5311 120.635 21.0103 120.788 18.0725C121.007 13.8563 124.27 10.4382 127.876 9.82244C130.297 9.40827 132.588 9.71743 134.574 11.3078C135.169 11.7828 135.659 12.357 136.144 13.0611C136.144 12.1969 136.144 11.4238 136.144 10.6535C136.144 10.1096 136.144 10.1096 136.701 10.1096C137.432 10.1096 138.163 10.1206 138.894 10.104C139.135 10.0985 139.196 10.1648 139.196 10.4022C139.188 14.7565 139.191 19.1134 139.191 23.4676C139.191 24.7018 139.186 25.9332 139.196 27.1675C139.199 27.3801 139.141 27.4381 138.925 27.4353C138.092 27.4242 137.26 27.4214 136.427 27.4353C136.208 27.4381 136.133 27.3938 136.136 27.1564C136.153 26.3005 136.144 25.4418 136.144 24.4837ZM123.818 18.76C123.818 22.2831 126.455 24.9365 129.945 24.9586C133.48 24.9835 136.099 22.2085 136.155 18.887C136.21 15.3501 133.469 12.5614 129.967 12.5807C126.466 12.6 123.818 15.2451 123.818 18.76Z" fill="#141820"/>
<path d="M106.435 24.4924C105.926 25.2185 105.402 25.8149 104.773 26.3119C103.513 27.3058 102.058 27.7836 100.471 27.8526C96.5606 28.0238 93.7738 26.2484 91.9764 22.8633C91.189 21.3806 90.9735 19.7571 91.0898 18.1032C91.3144 14.8645 92.8295 12.3409 95.6632 10.7698C98.5798 9.15461 101.574 9.19605 104.452 10.999C105.246 11.496 105.851 12.2084 106.435 13.0505C106.435 12.5479 106.435 12.1283 106.435 11.7113C106.435 11.2475 106.441 10.7809 106.432 10.317C106.43 10.1652 106.469 10.1044 106.634 10.1072C107.518 10.1154 108.401 10.1154 109.282 10.1072C109.448 10.1044 109.501 10.1652 109.482 10.317C109.476 10.3557 109.482 10.3971 109.482 10.4385C109.482 15.9938 109.479 21.5518 109.487 27.1071C109.487 27.3638 109.44 27.4494 109.161 27.4411C108.338 27.4191 107.516 27.4246 106.696 27.4384C106.474 27.4411 106.427 27.3722 106.43 27.1651C106.441 26.3036 106.435 25.4477 106.435 24.4924ZM106.435 18.7852C106.435 15.2483 103.795 12.5866 100.283 12.5839C96.768 12.5811 94.1093 15.2427 94.1093 18.7687C94.1093 22.278 96.7653 24.9535 100.25 24.9535C103.782 24.9535 106.435 22.3084 106.435 18.7852Z" fill="#141820"/>
<path d="M115.717 12.8097C116.146 12.1416 116.587 11.5203 117.194 11.0316C118.282 10.1481 119.562 9.84438 120.93 9.80293C121.085 9.79745 121.144 9.84159 121.144 10.0045C121.138 10.9239 121.133 11.8434 121.146 12.7628C121.149 13.0003 121.01 12.9616 120.872 12.9616C119.861 12.9561 118.908 13.1714 118.016 13.6656C116.709 14.389 116.036 15.5211 115.809 16.9596C115.74 17.3986 115.717 17.8431 115.717 18.2877C115.72 21.2282 115.714 24.1688 115.725 27.1093C115.725 27.3744 115.665 27.4489 115.393 27.4407C114.612 27.4213 113.829 27.4186 113.047 27.4407C112.751 27.4489 112.659 27.3882 112.659 27.0706C112.671 21.5844 112.668 16.0954 112.668 10.6091C112.668 10.5181 112.676 10.4269 112.665 10.3359C112.648 10.1729 112.695 10.1039 112.878 10.1066C113.751 10.115 114.623 10.1177 115.499 10.1066C115.714 10.1039 115.717 10.206 115.717 10.3635C115.714 11.1752 115.717 11.9924 115.717 12.8097Z" fill="#141820"/>
<path d="M5.73154 18.7493C5.73154 11.8274 11.4791 6.07608 18.6199 6.22791C25.456 6.37427 31.0984 12.0344 30.9322 19.0779C30.7743 25.8121 25.2262 31.2984 18.3651 31.3095C11.3794 31.3232 5.73154 25.6962 5.73154 18.7493ZM18.318 30.5943C24.8882 30.5943 30.2093 25.3096 30.2176 18.799C30.2259 12.2912 24.9713 7.10587 18.6477 6.94297C11.9555 6.76902 6.44338 12.1504 6.44618 18.7438C6.44888 25.3041 11.7477 30.5943 18.318 30.5943Z" fill="#141820"/>
<path d="M18.3185 30.5941C11.7483 30.5941 6.44942 25.3039 6.44663 18.7409C6.44392 12.1474 11.9588 6.76884 18.6481 6.94001C24.9718 7.10291 30.2264 12.2883 30.218 18.7961C30.2097 25.3094 24.8888 30.5941 18.3185 30.5941ZM21.5925 13.6549C20.1079 11.9348 18.2576 11.4875 16.1773 11.794C14.2218 12.0812 12.8036 13.2105 11.7649 14.8201C10.7123 16.4492 10.4935 18.2522 10.776 20.138C11.1915 22.9018 13.6235 25.6905 16.8338 25.8285C18.349 25.8948 19.7561 25.5855 20.9333 24.5584C21.1521 24.3679 21.3515 24.1581 21.5925 23.9234C21.5925 24.3651 21.6036 24.7766 21.587 25.1852C21.5787 25.395 21.6341 25.4558 21.8501 25.453C22.8251 25.4419 23.8001 25.4392 24.7724 25.4558C25.0134 25.4586 25.0466 25.3813 25.0466 25.1686C25.0383 23.1089 25.0411 21.0463 25.0411 18.9866C25.0411 16.775 25.0411 14.5606 25.0411 12.349C25.0411 12.211 25.0771 12.0812 24.8389 12.0839C23.8251 12.0977 22.8085 12.095 21.7947 12.0866C21.6064 12.0839 21.5842 12.1613 21.587 12.3186C21.5981 12.7383 21.5925 13.158 21.5925 13.6549Z" fill="#141820"/>
<path d="M17.8554 14.9804C20.0796 14.9915 21.6032 16.5736 21.5921 18.8625C21.581 21.0107 19.98 22.5706 17.825 22.5651C15.6201 22.5568 14.0413 20.8698 14.1188 18.5891C14.1853 16.5294 15.7503 14.9693 17.8554 14.9804Z" fill="#141820"/>
</svg>
